<svg xmlns="http://www.w3.org/2000/svg" viewBox="0 0 64.76 64.76"><defs><style>.cls-1{fill:none;stroke:#00205b;stroke-miterlimit:10;stroke-width:2px}.cls-2{fill:#00205b}</style></defs><title>contact</title><g id="Layer_2" data-name="Layer 2"><g id="Layer_1-2" data-name="Layer 1"><circle class="cls-1" cx="32.38" cy="32.38" r="31.38"/><path class="cls-2" d="M47.16 41.35A2.65 2.65 0 0 1 44.52 44H20.24a2.65 2.65 0 0 1-2.64-2.64V23.41a2.65 2.65 0 0 1 2.64-2.64h24.28a2.65 2.65 0 0 1 2.64 2.64zm-2.64-18.47H20.24a.54.54 0 0 0-.53.53 6 6 0 0 0 2.43 4.69q3.32 2.6 6.62 5.23c.87.71 2.46 2.23 3.61 2.23s2.74-1.52 3.61-2.23q3.29-2.62 6.62-5.23c1.07-.84 2.43-2.67 2.43-4.08.02-.42.12-1.14-.51-1.14zm.53 5.81a8.88 8.88 0 0 1-1.14 1.09c-2.36 1.81-4.73 3.66-7 5.58-1.24 1-2.77 2.31-4.49 2.31-1.72 0-3.25-1.27-4.49-2.31-2.29-1.91-4.67-3.76-7-5.58a8.88 8.88 0 0 1-1.14-1.09v12.66a.54.54 0 0 0 .53.53h24.2a.54.54 0 0 0 .53-.53z"/></g></g></svg>