<svg xmlns="http://www.w3.org/2000/svg" viewBox="0 0 64.76 64.76"><defs><style>.cls-1{fill:none;stroke:#00205b;stroke-miterlimit:10;stroke-width:2px}.cls-2{fill:#00205b}</style></defs><title>linkedin</title><g id="Layer_2" data-name="Layer 2"><g id="Layer_1-2" data-name="Layer 1"><circle class="cls-1" cx="32.38" cy="32.38" r="31.38"/><path class="cls-2" d="M44 39.64A4.36 4.36 0 0 1 39.64 44H25.12a4.36 4.36 0 0 1-4.36-4.36V25.12a4.36 4.36 0 0 1 4.36-4.36h14.52A4.36 4.36 0 0 1 44 25.12zm-17.88-15a1.82 1.82 0 1 0 0 3.63 1.82 1.82 0 1 0 0-3.63zm1.72 15.55V29.72h-3.49v10.5zm12.57 0v-6c0-3.22-1.72-4.72-4-4.72a3.45 3.45 0 0 0-3.16 1.77v-1.52h-3.49v10.5h3.49v-5.87a2.45 2.45 0 0 1 .11-.85 1.93 1.93 0 0 1 1.8-1.27c1.25 0 1.75 1 1.75 2.37v5.61z"/></g></g></svg>