<svg xmlns="http://www.w3.org/2000/svg" viewBox="0 0 245.6 122.31"><defs><style>.a{fill:#176dac;}.b{fill:#002c40;}.c{fill:#014d66;}.d{fill:#319ad5;}.e{fill:#3aade2;}.f{fill:#2780be;}.g{fill:#31c4f3;}.h{fill:#fbb231;}.i{fill:#211e1f;}.j{fill:#919397;}</style></defs><title>logo</title><polygon class="a" points="91.81 90.77 122.51 60.42 153.21 90.77 91.81 90.77"/><polygon class="b" points="0 121.03 30.61 90.77 61.4 121.03 0 121.03"/><polygon class="c" points="91.81 90.77 61.4 121.03 30.61 90.77 91.81 90.77"/><polygon class="d" points="61.21 60.51 91.81 30.26 122.6 60.51 61.21 60.51"/><polygon class="d" points="122.42 60.51 153.11 30.24 183.81 60.51 122.42 60.51"/><polygon class="e" points="153.11 30.24 122.51 60.51 91.81 30.26 153.11 30.24"/><polygon class="e" points="214.32 30.26 183.67 60.51 153.11 30.24 214.32 30.26"/><polygon class="a" points="30.61 90.77 61.21 60.51 92.19 90.77 30.61 90.77"/><polygon class="f" points="122.51 60.51 91.81 90.77 61.21 60.51 122.51 60.51"/><polygon class="f" points="183.67 60.51 153.21 90.77 122.51 60.51 183.67 60.51"/><polygon class="g" points="91.81 30.26 122.42 0 153.11 30.24 91.81 30.26"/><polygon class="g" points="153.11 30.24 183.81 0 214.32 30.26 153.11 30.24"/><polygon class="h" points="183.81 0 153.11 30.24 122.42 0 183.81 0"/><path class="i" d="M95.92,103.64a1.34,1.34,0,0,1,1.34-1.34h11.57c3.65,0,7.41,1.57,7.41,5.8a4.48,4.48,0,0,1-1.92,3.76,5.09,5.09,0,0,1,2.74,4.72c0,4.05-3.56,6.12-7.55,6.12H97.26a1.34,1.34,0,0,1-1.34-1.34Zm5.37,2.51v4.08h7.61a2,2,0,0,0,0-4.08Zm0,7.81v4.9h8.13a2.46,2.46,0,0,0,0-4.9Z" transform="translate(-0.79 -0.4)"/><path class="i" d="M126.33,118.43c.79,0,1.54.26,2.39.26H129c1.86,0,3.18-1.23,3.88-3.7h-1.23c-5,0-7.2-2-9-6.21l-2.24-5.13c-.32-.76.06-1.34.79-1.34h3a2,2,0,0,1,1.89,1.28l1.63,4c.9,2.16,2.22,3.41,4.73,3.41h1.75l2.57-7.35a1.9,1.9,0,0,1,1.78-1.31h2.89a.91.91,0,0,1,.9,1.28l-4.64,13.3c-1.2,3.44-3.44,5.83-8.37,5.83h-3.44a1.34,1.34,0,0,1-1.34-1.34v-1.6a1.32,1.32,0,0,1,1.34-1.34Z" transform="translate(-0.79 -0.4)"/><path class="i" d="M164.25,122.72h-2.71a1.34,1.34,0,0,1-1.34-1.34v-15h-3.47a3.76,3.76,0,0,0-3.76,2.86l-3.27,12.19a1.83,1.83,0,0,1-1.69,1.34h-2.88a.93.93,0,0,1-.93-1.2l3.62-13.68c1.2-4.52,5.31-5.54,9.45-5.54h7.12a1.3,1.3,0,0,1,1.2,1.34v17.73A1.31,1.31,0,0,1,164.25,122.72Z" transform="translate(-0.79 -0.4)"/><path class="i" d="M173.9,122.72a1.36,1.36,0,0,1-1.34-1.37v-17.7a1.36,1.36,0,0,1,1.34-1.37h2.68a1.36,1.36,0,0,1,1.34,1.37v6.82H181c1.66,0,2.86-.85,4-2.89l2.22-3.94a2.41,2.41,0,0,1,2-1.37h3.3c.73,0,.87.58.44,1.37l-3.09,5.6a5.61,5.61,0,0,1-3.68,3.15c1.4.29,2.86,2.07,3.68,3.32l3.56,5.66c.47.76.26,1.34-.5,1.34h-3.27a2.93,2.93,0,0,1-2.19-1.34l-2.51-4c-1.08-1.72-2.16-2.92-4-2.92h-3.06v6.91a1.33,1.33,0,0,1-1.34,1.31Z" transform="translate(-0.79 -0.4)"/><path class="i" d="M200.54,107.84c1.2-4.52,5.31-5.54,9.45-5.54h7.67a1.27,1.27,0,0,1,1.23,1.31V121.4a1.33,1.33,0,0,1-1.34,1.31h-2.68a1.32,1.32,0,0,1-1.34-1.34v-3.59H203.4l-1,3.59a1.83,1.83,0,0,1-1.69,1.34h-2.8a1,1,0,0,1-1-1.31Zm3.91,5.92h9.07v-7.43h-4.05a3.76,3.76,0,0,0-3.76,2.86Z" transform="translate(-0.79 -0.4)"/><path class="i" d="M241,114.08h-9.8v7.32a1.33,1.33,0,0,1-1.34,1.31h-2.66a1.36,1.36,0,0,1-1.37-1.34V103.64a1.34,1.34,0,0,1,1.37-1.34h2.66a1.34,1.34,0,0,1,1.34,1.34v6.42H241v-6.42a1.34,1.34,0,0,1,1.34-1.34H245a1.35,1.35,0,0,1,1.37,1.34v17.73a1.36,1.36,0,0,1-1.37,1.34h-2.65A1.33,1.33,0,0,1,241,121.4Z" transform="translate(-0.79 -0.4)"/><path class="j" d="M196.9,84.07H188.8v6a1.1,1.1,0,0,1-1.11,1.08h-2.19a1.13,1.13,0,0,1-1.13-1.11V75.45a1.11,1.11,0,0,1,1.13-1.11h2.19a1.1,1.1,0,0,1,1.11,1.11v5.3h8.09v-5.3A1.1,1.1,0,0,1,198,74.34h2.19a1.11,1.11,0,0,1,1.13,1.11V90.09a1.12,1.12,0,0,1-1.13,1.11H198a1.1,1.1,0,0,1-1.11-1.08Z" transform="translate(-0.79 -0.4)"/><path class="j" d="M221.7,74.34a1.09,1.09,0,0,1,1.11,1.11v1.11a1.09,1.09,0,0,1-1.11,1.11h-5.25V90.11a1.1,1.1,0,0,1-1.11,1.08h-2.22A1.1,1.1,0,0,1,212,90.11V77.66h-5.25a1.09,1.09,0,0,1-1.11-1.11V75.45a1.09,1.09,0,0,1,1.11-1.11Z" transform="translate(-0.79 -0.4)"/><path class="j" d="M228.25,91.2a1.12,1.12,0,0,1-1.11-1.11V75.42a1.1,1.1,0,0,1,1.11-1.08h2.22a1.1,1.1,0,0,1,1.11,1.11V87.87h7.9V75.42a1.1,1.1,0,0,1,1.11-1.08h2.22a1.1,1.1,0,0,1,1.11,1.11V87.87h1.28A1.11,1.11,0,0,1,246.29,89v1.11a1.12,1.12,0,0,1-1.11,1.11Z" transform="translate(-0.79 -0.4)"/><polygon class="d" points="183.67 60.51 214.32 30.26 245.02 60.51 183.67 60.51"/></svg>