<svg width="276" height="40" viewBox="0 0 276 40" fill="none" xmlns="http://www.w3.org/2000/svg">
<g clip-path="url(#clip0)">
<path d="M75.1757 24.1921C74.4504 23.9872 73.8288 23.6799 73.4144 23.3214L74.0878 21.8361C74.5022 22.1434 75.0203 22.4507 75.6419 22.6556C76.2635 22.8604 76.8851 22.9629 77.5067 22.9629C78.2838 22.9629 78.8536 22.8604 79.2162 22.6044C79.5788 22.3483 79.786 22.041 79.786 21.6312C79.786 21.3239 79.6824 21.1191 79.4752 20.9142C79.268 20.7093 79.009 20.5557 78.6464 20.4533C78.3356 20.3508 77.8694 20.2484 77.2995 20.0947C76.5225 19.8899 75.8491 19.7362 75.3829 19.5314C74.9167 19.3265 74.4504 19.0704 74.1396 18.6607C73.777 18.251 73.6216 17.7388 73.6216 17.073C73.6216 16.5096 73.777 15.9974 74.0878 15.5365C74.3986 15.0755 74.8648 14.717 75.4865 14.4097C76.1081 14.1536 76.8851 14 77.8175 14C78.4392 14 79.0608 14.1024 79.6824 14.2561C80.304 14.4097 80.8221 14.6146 81.2883 14.9219L80.6666 16.4072C80.2004 16.1511 79.7342 15.9462 79.268 15.7926C78.75 15.6389 78.2838 15.5877 77.8175 15.5877C77.0405 15.5877 76.4707 15.6901 76.1081 15.9462C75.7455 16.2023 75.5383 16.5608 75.5383 16.9706C75.5383 17.2778 75.6419 17.4827 75.8491 17.6876C76.0563 17.8924 76.3153 17.9949 76.6779 18.1485C76.9887 18.251 77.4549 18.3534 78.0248 18.507C78.8018 18.6607 79.4234 18.8656 79.9414 19.0704C80.4594 19.2753 80.8739 19.5314 81.1847 19.9411C81.5473 20.3508 81.7027 20.863 81.7027 21.5288C81.7027 22.0922 81.5473 22.6044 81.2365 23.0653C80.9257 23.5262 80.4594 23.8848 79.8378 24.1408C79.2162 24.3969 78.4392 24.5506 77.5067 24.5506C76.6779 24.5506 75.9009 24.4481 75.1757 24.1921Z" fill="#2F2E7B"/>
<path d="M96.7252 22.8092V24.3969H88.955V14.1536H96.518V15.7413H90.8716V18.4046H95.8964V19.9923H90.8716V22.8092H96.7252Z" fill="#2F2E7B"/>
<path d="M106.101 23.8848C105.273 23.4238 104.599 22.8092 104.133 21.9898C103.667 21.1703 103.408 20.2996 103.408 19.2753C103.408 18.251 103.667 17.3803 104.133 16.5608C104.599 15.7414 105.273 15.1268 106.153 14.6658C106.982 14.2049 107.966 14 109.002 14C109.831 14 110.608 14.1536 111.333 14.4609C112.059 14.7682 112.628 15.178 113.095 15.7414L111.851 16.9193C111.074 16.0999 110.194 15.7414 109.054 15.7414C108.329 15.7414 107.707 15.895 107.137 16.2023C106.568 16.5096 106.153 16.9193 105.842 17.4827C105.532 18.0461 105.376 18.6607 105.376 19.3265C105.376 20.0435 105.532 20.6581 105.842 21.1703C106.153 21.7337 106.619 22.1434 107.137 22.4507C107.707 22.758 108.329 22.9117 109.054 22.9117C110.142 22.9117 111.074 22.5019 111.851 21.6825L113.095 22.8604C112.628 23.4238 112.007 23.8335 111.282 24.1408C110.556 24.4481 109.779 24.6018 108.95 24.6018C107.914 24.5506 106.982 24.3457 106.101 23.8848Z" fill="#2F2E7B"/>
<path d="M121.331 23.3726C120.554 22.5531 120.14 21.4264 120.14 19.9411V14.1536H122.056V19.8899C122.056 21.8873 122.937 22.9116 124.698 22.9116C126.459 22.9116 127.34 21.8873 127.34 19.8899V14.1536H129.257V19.9411C129.257 21.4264 128.842 22.5531 128.065 23.3726C127.288 24.192 126.149 24.5506 124.698 24.5506C123.248 24.5506 122.108 24.1408 121.331 23.3726Z" fill="#2F2E7B"/>
<path d="M144.02 24.3969L141.896 21.3751C141.793 21.3751 141.689 21.3751 141.482 21.3751H139.151V24.3457H137.234V14.1024H141.482C142.363 14.1024 143.14 14.2561 143.813 14.5634C144.486 14.8707 145.004 15.2804 145.367 15.8438C145.73 16.4072 145.885 17.0218 145.885 17.79C145.885 18.5582 145.678 19.2241 145.315 19.7874C144.953 20.3508 144.383 20.7605 143.658 21.0166L146.041 24.3969H144.02ZM143.347 16.3047C142.932 15.9462 142.259 15.7926 141.43 15.7926H139.151V19.8899H141.43C142.259 19.8899 142.932 19.7362 143.347 19.3777C143.761 19.0192 144.02 18.507 144.02 17.8412C143.968 17.1242 143.761 16.612 143.347 16.3047Z" fill="#2F2E7B"/>
<path d="M153.396 14.1536H155.313V24.3969H153.396V14.1536Z" fill="#2F2E7B"/>
<path d="M165.57 15.7413H162.151V14.1536H170.957V15.7413H167.538V24.3969H165.622V15.7413H165.57Z" fill="#2F2E7B"/>
<path d="M182.095 20.7605V24.3969H180.178V20.8118L176.086 14.1536H178.158L181.214 19.1728L184.27 14.1536H186.187L182.095 20.7605Z" fill="#2F2E7B"/>
<path d="M206.649 14.1536L202.142 24.3969H200.225L195.667 14.1536H197.739L201.209 22.0922L204.68 14.1536H206.649Z" fill="#2F2E7B"/>
<path d="M213.072 14.1536H214.989V24.3969H213.072V14.1536Z" fill="#2F2E7B"/>
<path d="M224.054 24.1921C223.329 23.9872 222.707 23.6799 222.293 23.3214L222.966 21.8361C223.381 22.1434 223.899 22.4507 224.52 22.6556C225.142 22.8604 225.763 22.9629 226.385 22.9629C227.162 22.9629 227.732 22.8604 228.095 22.6044C228.457 22.3483 228.664 22.041 228.664 21.6312C228.664 21.3239 228.561 21.1191 228.354 20.9142C228.146 20.7093 227.887 20.5557 227.525 20.4533C227.214 20.3508 226.748 20.2484 226.178 20.0947C225.401 19.8899 224.727 19.7362 224.261 19.5314C223.795 19.3265 223.329 19.0704 223.018 18.6607C222.655 18.251 222.5 17.7388 222.5 17.073C222.5 16.5096 222.655 15.9974 222.966 15.5365C223.277 15.0755 223.743 14.717 224.365 14.4097C224.986 14.1536 225.763 14 226.696 14C227.318 14 227.939 14.1024 228.561 14.2561C229.182 14.4097 229.7 14.6146 230.167 14.9219L229.545 16.4072C229.079 16.1511 228.613 15.9462 228.146 15.7926C227.628 15.6389 227.162 15.5877 226.696 15.5877C225.919 15.5877 225.349 15.6901 224.986 15.9462C224.624 16.2023 224.417 16.5608 224.417 16.9706C224.417 17.2778 224.52 17.4827 224.727 17.6876C224.935 17.8924 225.194 17.9949 225.556 18.1485C225.867 18.251 226.333 18.3534 226.903 18.507C227.68 18.6607 228.302 18.8656 228.82 19.0704C229.338 19.2753 229.752 19.5314 230.063 19.9411C230.426 20.3508 230.581 20.863 230.581 21.5288C230.581 22.0922 230.426 22.6044 230.115 23.0653C229.804 23.5262 229.338 23.8848 228.716 24.1408C228.095 24.3969 227.318 24.5506 226.385 24.5506C225.556 24.5506 224.779 24.4481 224.054 24.1921Z" fill="#2F2E7B"/>
<path d="M237.833 14.1536H239.75V24.3969H237.833V14.1536Z" fill="#2F2E7B"/>
<path d="M249.903 23.8848C249.074 23.4238 248.401 22.8092 247.883 21.9898C247.417 21.1703 247.158 20.2996 247.158 19.2753C247.158 18.3022 247.417 17.3803 247.883 16.5608C248.349 15.7414 249.023 15.1268 249.903 14.6658C250.732 14.2049 251.716 14 252.752 14C253.788 14 254.773 14.2049 255.601 14.6658C256.43 15.1268 257.104 15.7414 257.622 16.5608C258.088 17.3803 258.347 18.251 258.347 19.2753C258.347 20.2996 258.088 21.1703 257.622 21.9898C257.155 22.8092 256.482 23.4238 255.601 23.8848C254.773 24.3457 253.788 24.5506 252.752 24.5506C251.664 24.5506 250.732 24.3457 249.903 23.8848ZM254.617 22.3995C255.187 22.0922 255.601 21.6825 255.912 21.1191C256.223 20.5557 256.378 19.9411 256.378 19.2753C256.378 18.6095 256.223 17.9949 255.912 17.4315C255.601 16.8681 255.187 16.4584 254.617 16.1511C254.047 15.8438 253.426 15.6901 252.752 15.6901C252.079 15.6901 251.457 15.8438 250.887 16.1511C250.318 16.4584 249.903 16.8681 249.592 17.4315C249.282 17.9949 249.126 18.6095 249.126 19.2753C249.126 19.9411 249.282 20.5557 249.592 21.1191C249.903 21.6825 250.318 22.0922 250.887 22.3995C251.457 22.7068 252.079 22.8604 252.752 22.8604C253.426 22.8604 254.047 22.7068 254.617 22.3995Z" fill="#2F2E7B"/>
<path d="M274.923 14.1536V24.3969H273.318L267.619 17.4315V24.3969H265.703V14.1536H267.309L273.059 21.0678V14.1536H274.923Z" fill="#2F2E7B"/>
<path d="M79.0608 33.2573L76.3671 38.2253C76.1081 38.6863 75.8491 38.9936 75.5383 39.1984C75.2275 39.4033 74.8649 39.5057 74.4504 39.5057C74.1396 39.5057 73.8288 39.4545 73.518 39.3009L73.8288 38.379C74.0878 38.4302 74.295 38.4814 74.4504 38.4814C74.8131 38.4814 75.1239 38.2765 75.3829 37.918L75.4865 37.7644L73 33.1549H74.2432L76.1081 36.7913L78.0248 33.1549H79.0608V33.2573Z" fill="#2F2E7B"/>
<path d="M89.1622 36.7913C89.3694 37.0474 89.473 37.3547 89.473 37.7644C89.473 38.3278 89.2658 38.7375 88.8514 39.0448C88.4369 39.3521 87.8671 39.5058 87.0901 39.5058H84.1374V33.3598H86.9347C87.6599 33.3598 88.1779 33.5135 88.5923 33.7695C89.0068 34.0256 89.1622 34.4353 89.1622 34.9475C89.1622 35.2548 89.0586 35.5621 88.9032 35.767C88.7477 36.0231 88.5405 36.1767 88.2297 36.2791C88.6441 36.3304 88.955 36.5352 89.1622 36.7913ZM85.277 35.9206H86.8311C87.1937 35.9206 87.5045 35.8694 87.6599 35.7158C87.8671 35.5621 87.9707 35.3572 87.9707 35.0499C87.9707 34.7426 87.8671 34.5378 87.6599 34.3841C87.4527 34.2305 87.1937 34.1793 86.8311 34.1793H85.277V35.9206ZM88.3333 37.662C88.3333 37.0474 87.9189 36.7401 87.0901 36.7401H85.3288V38.5327H87.0901C87.9189 38.5327 88.3333 38.2766 88.3333 37.662Z" fill="#2F2E7B"/>
<path d="M95.0676 33.2574H96.2072V37.6108L99.5743 33.2574H100.662V39.4034H99.4707V35.05L96.1036 39.4034H95.0157V33.2574H95.0676Z" fill="#2F2E7B"/>
<path d="M112.784 38.4815V39.4546H105.894V38.4815H106.153C106.568 38.4815 106.827 38.1742 106.982 37.6108C107.137 37.0474 107.241 36.2791 107.293 35.2548L107.345 33.3086H111.903V38.4815H112.784ZM108.07 37.3547C107.966 37.8669 107.811 38.2766 107.604 38.4815H110.764V34.2817H108.277L108.225 35.3573C108.225 36.1255 108.122 36.7913 108.07 37.3547Z" fill="#2F2E7B"/>
<path d="M122.782 38.4815V39.4546H118.119V33.3086H122.678V34.2817H119.311V35.8694H122.315V36.7913H119.311V38.4815H122.782Z" fill="#2F2E7B"/>
<path d="M132.883 34.2305H130.811V39.4034H129.671V34.2305H127.599V33.2574H132.883V34.2305Z" fill="#2F2E7B"/>
<path d="M142.725 35.8694C143.14 36.1767 143.347 36.6889 143.347 37.3547C143.347 38.0205 143.14 38.5327 142.673 38.8912C142.259 39.2497 141.637 39.4546 140.809 39.4546H138.115V33.3086H139.254V35.4085H140.964C141.741 35.3572 142.311 35.5109 142.725 35.8694ZM141.793 38.2254C142.052 38.0205 142.155 37.7132 142.155 37.3035C142.155 36.5352 141.689 36.1767 140.757 36.1767H139.254V38.4815H140.757C141.223 38.5327 141.586 38.4302 141.793 38.2254Z" fill="#2F2E7B"/>
<path d="M153.5 33.2574H158.369V34.1793H154.64V35.7158H156.505C157.23 35.7158 157.8 35.8694 158.214 36.1767C158.577 36.484 158.784 36.945 158.784 37.5083C158.784 38.1229 158.577 38.5839 158.162 38.9424C157.748 39.2497 157.126 39.4546 156.349 39.4546H153.552V33.2574H153.5ZM156.245 38.5327C156.712 38.5327 157.023 38.4302 157.282 38.2766C157.541 38.1229 157.644 37.8669 157.644 37.5596C157.644 36.945 157.178 36.5864 156.297 36.5864H154.691V38.5327H156.245Z" fill="#2F2E7B"/>
<path d="M168.937 38.4815V39.4546H164.275V33.3086H168.833V34.2817H165.466V35.8694H168.471V36.7913H165.466V38.4815H168.937Z" fill="#2F2E7B"/>
<path d="M178.676 36.7913C178.883 37.0473 178.986 37.3546 178.986 37.7132C178.986 38.0717 178.883 38.379 178.624 38.6863C178.365 38.9936 178.054 39.1472 177.64 39.3009C177.225 39.4545 176.811 39.5057 176.293 39.5057C175.878 39.5057 175.464 39.4545 175.05 39.3521C174.635 39.2497 174.221 39.0448 173.91 38.8399L174.273 38.0205C174.532 38.2253 174.842 38.3278 175.205 38.4302C175.516 38.5326 175.878 38.5838 176.189 38.5838C176.655 38.5838 177.07 38.4814 177.381 38.3278C177.691 38.1741 177.847 37.918 177.847 37.5595C177.847 37.3034 177.743 37.0986 177.484 36.9449C177.277 36.7913 176.966 36.74 176.552 36.74H175.101V35.8182H176.448C176.811 35.8182 177.07 35.7669 177.277 35.6133C177.484 35.4596 177.588 35.306 177.588 35.0499C177.588 34.7426 177.432 34.5377 177.173 34.3841C176.914 34.2304 176.552 34.128 176.137 34.128C175.878 34.128 175.568 34.1792 175.257 34.2304C174.946 34.3329 174.687 34.4353 174.428 34.589L174.065 33.6671C174.376 33.5134 174.739 33.3598 175.101 33.3086C175.464 33.2061 175.827 33.2061 176.189 33.2061C176.655 33.2061 177.07 33.2573 177.484 33.411C177.847 33.5646 178.158 33.7695 178.417 34.0256C178.624 34.2817 178.779 34.589 178.779 34.9475C178.779 35.2548 178.676 35.5109 178.52 35.7669C178.365 35.9718 178.106 36.1767 177.847 36.2791C178.158 36.3303 178.468 36.5352 178.676 36.7913Z" fill="#2F2E7B"/>
<path d="M185.203 39.096C184.685 38.8399 184.27 38.4302 184.011 37.9692C183.7 37.5083 183.597 36.9449 183.597 36.3303C183.597 35.7157 183.752 35.2036 184.011 34.6914C184.322 34.2305 184.685 33.8207 185.203 33.5646C185.721 33.3086 186.291 33.1549 186.912 33.1549C187.534 33.1549 188.104 33.3086 188.622 33.5646C189.14 33.8207 189.554 34.2305 189.813 34.6914C190.124 35.1523 190.227 35.7157 190.227 36.3303C190.227 36.9449 190.072 37.4571 189.813 37.9692C189.502 38.4302 189.14 38.8399 188.622 39.096C188.104 39.3521 187.534 39.5057 186.912 39.5057C186.291 39.5057 185.721 39.4033 185.203 39.096ZM188.052 38.2253C188.363 38.0205 188.622 37.7644 188.829 37.4571C189.036 37.1498 189.088 36.7401 189.088 36.3303C189.088 35.9206 188.984 35.5621 188.829 35.2036C188.622 34.8963 188.363 34.589 188.052 34.4353C187.741 34.2305 187.327 34.1792 186.912 34.1792C186.498 34.1792 186.135 34.2817 185.773 34.4353C185.462 34.6402 185.203 34.8963 184.996 35.2036C184.788 35.5109 184.685 35.9206 184.685 36.3303C184.685 36.7401 184.788 37.0986 184.996 37.4571C185.203 37.7644 185.462 38.0717 185.773 38.2253C186.083 38.4302 186.498 38.4814 186.912 38.4814C187.327 38.5326 187.741 38.4302 188.052 38.2253Z" fill="#2F2E7B"/>
<path d="M200.847 33.2574V39.4034H199.707V34.2305H196.496V39.4034H195.304V33.2574H200.847Z" fill="#2F2E7B"/>
<path d="M211 38.0205H207.892L207.27 39.4546H206.079L208.876 33.3086H210.016L212.813 39.4546H211.622L211 38.0205ZM210.586 37.0986L209.394 34.3841L208.203 37.0986H210.586Z" fill="#2F2E7B"/>
<path d="M218.615 39.096C218.097 38.8399 217.734 38.4302 217.423 37.9692C217.113 37.5083 217.009 36.9449 217.009 36.3303C217.009 35.7157 217.164 35.2036 217.423 34.6914C217.734 34.2305 218.097 33.8207 218.615 33.5646C219.133 33.3086 219.703 33.1549 220.324 33.1549C220.842 33.1549 221.309 33.2573 221.723 33.411C222.137 33.5646 222.5 33.8207 222.811 34.1792L222.086 34.8963C221.619 34.4353 221.101 34.1792 220.428 34.1792C220.014 34.1792 219.599 34.2817 219.288 34.4353C218.926 34.6402 218.667 34.8963 218.511 35.2036C218.304 35.5109 218.2 35.9206 218.2 36.3303C218.2 36.7401 218.304 37.0986 218.511 37.4571C218.718 37.7644 218.977 38.0205 219.288 38.2253C219.651 38.4302 220.014 38.4814 220.428 38.4814C221.101 38.4814 221.619 38.2253 222.086 37.7644L222.759 38.4814C222.448 38.8399 222.086 39.096 221.671 39.2497C221.257 39.4033 220.791 39.5057 220.273 39.5057C219.703 39.5057 219.133 39.4033 218.615 39.096Z" fill="#2F2E7B"/>
<path d="M233.689 33.2574V39.4034H232.55V36.7401H229.338V39.4034H228.198V33.2574H229.338V35.8182H232.55V33.2574H233.689Z" fill="#2F2E7B"/>
<path d="M240.32 39.096C239.802 38.8399 239.387 38.4302 239.128 37.9692C238.818 37.5083 238.714 36.9449 238.714 36.3303C238.714 35.7157 238.869 35.2036 239.128 34.6914C239.439 34.2305 239.802 33.8207 240.32 33.5646C240.838 33.3086 241.408 33.1549 242.029 33.1549C242.651 33.1549 243.221 33.3086 243.739 33.5646C244.257 33.8207 244.671 34.2305 244.93 34.6914C245.241 35.1523 245.345 35.7157 245.345 36.3303C245.345 36.9449 245.189 37.4571 244.93 37.9692C244.619 38.4302 244.257 38.8399 243.739 39.096C243.221 39.3521 242.651 39.5057 242.029 39.5057C241.408 39.5057 240.838 39.4033 240.32 39.096ZM243.169 38.2253C243.48 38.0205 243.739 37.7644 243.946 37.4571C244.153 37.1498 244.205 36.7401 244.205 36.3303C244.205 35.9206 244.101 35.5621 243.946 35.2036C243.739 34.8963 243.48 34.589 243.169 34.4353C242.858 34.2305 242.444 34.1792 242.029 34.1792C241.615 34.1792 241.252 34.2817 240.89 34.4353C240.579 34.6402 240.32 34.8963 240.113 35.2036C239.905 35.5109 239.802 35.9206 239.802 36.3303C239.802 36.7401 239.905 37.0986 240.113 37.4571C240.32 37.7644 240.579 38.0717 240.89 38.2253C241.2 38.4302 241.615 38.4814 242.029 38.4814C242.444 38.5326 242.806 38.4302 243.169 38.2253Z" fill="#2F2E7B"/>
<path d="M251.613 39.096C251.095 38.8399 250.732 38.4302 250.421 37.9692C250.11 37.5083 250.007 36.9449 250.007 36.3303C250.007 35.7157 250.162 35.2036 250.421 34.6914C250.732 34.2305 251.095 33.8207 251.613 33.5646C252.131 33.3086 252.7 33.1549 253.322 33.1549C253.84 33.1549 254.306 33.2573 254.721 33.411C255.135 33.5646 255.498 33.8207 255.809 34.1792L255.083 34.8963C254.617 34.4353 254.099 34.1792 253.426 34.1792C253.011 34.1792 252.597 34.2817 252.286 34.4353C251.923 34.6402 251.664 34.8963 251.509 35.2036C251.302 35.5109 251.198 35.9206 251.198 36.3303C251.198 36.7401 251.302 37.0986 251.509 37.4571C251.716 37.7644 251.975 38.0205 252.286 38.2253C252.649 38.4302 253.011 38.4814 253.426 38.4814C254.099 38.4814 254.617 38.2253 255.083 37.7644L255.809 38.4814C255.498 38.8399 255.135 39.096 254.721 39.2497C254.306 39.4033 253.84 39.5057 253.322 39.5057C252.649 39.5057 252.079 39.4033 251.613 39.096Z" fill="#2F2E7B"/>
<path d="M265.547 34.2305H263.475V39.4034H262.336V34.2305H260.264V33.2574H265.547V34.2305Z" fill="#2F2E7B"/>
<path d="M275.441 35.8694C275.856 36.1767 276.063 36.6889 276.063 37.3547C276.063 38.0205 275.856 38.5327 275.39 38.8912C274.975 39.2497 274.354 39.4546 273.525 39.4546H270.831V33.3086H271.971V35.4085H273.68C274.457 35.3572 275.027 35.5109 275.441 35.8694ZM274.509 38.2254C274.768 38.0205 274.872 37.7132 274.872 37.3035C274.872 36.5352 274.405 36.1767 273.473 36.1767H271.971V38.4815H273.473C273.939 38.5327 274.25 38.4302 274.509 38.2254Z" fill="#2F2E7B"/>
<path d="M29.4752 8.4507C51.491 10.2433 64.7523 14.6479 64.7523 14.6479C64.7523 14.6479 38.3333 2.40717 0 0V7.98976C10.2568 7.98976 19.1667 9.57746 26.7297 12.0359C27.2996 18.6428 30.6149 25.9155 34.4482 30.4225C20.9797 26.6325 10.6194 21.3572 10.6194 21.3572C10.6194 21.3572 39.8874 40 59.2095 40V34.2638C59.2095 32.3175 51.4392 18.4379 29.4752 8.4507ZM46.8806 21.9718C44.0833 41.9462 34.8108 28.5275 34.8108 15.1088C39.5766 17.2599 43.5653 19.6159 46.8806 21.9718ZM58.6396 34.2638C54.0811 34.2125 49.4189 33.7004 44.9122 32.8809C46.3626 31.0883 47.5023 27.8617 47.9685 22.7913C55.0653 28.0154 58.6396 32.9834 58.6396 34.2638Z" fill="#2F2E7B"/>
</g>
<defs>
<clipPath id="clip0">
<rect width="276" height="40" fill="white"/>
</clipPath>
</defs>
</svg>
