<svg xmlns="http://www.w3.org/2000/svg" viewBox="0 0 64.76 64.76"><defs><style>.cls-1{fill:none;stroke:#00205b;stroke-miterlimit:10;stroke-width:2px}.cls-2{fill:#00205b}</style></defs><title>twitter</title><g id="Layer_2" data-name="Layer 2"><g id="Layer_1-2" data-name="Layer 1"><circle class="cls-1" cx="32.38" cy="32.38" r="31.38"/><path id="Big_Icon" data-name="Big Icon" class="cls-2" d="M44.49 24.79a10.09 10.09 0 0 1-2.81.76v-.05a5.1 5.1 0 0 0 2.25-2.75A10.9 10.9 0 0 1 40.72 24a5.08 5.08 0 0 0-8.83 3.42c0 .19.09 1 .11 1a13.47 13.47 0 0 1-10.38-5.24 5.38 5.38 0 0 0 1.32 6.84 5.29 5.29 0 0 1-2-.44 5.31 5.31 0 0 0 4.18 4.9 5.26 5.26 0 0 1-2.46 0 5.31 5.31 0 0 0 4.77 3.61 11.74 11.74 0 0 1-7.14 2.25 14.16 14.16 0 0 0 7.38 2A14.35 14.35 0 0 0 42 27.25a5.1 5.1 0 0 0 2.49-2.46z"/></g></g></svg>